<?xml version="1.0" encoding="UTF-8"?>
<svg id="Layer_1" data-name="Layer 1" xmlns="http://www.w3.org/2000/svg" viewBox="0 0 640 512">
  <defs>
    <style>
      .cls-1 {
        fill: #57cc99;
      }
    </style>
  </defs>
  <path class="cls-1" d="M392.8,1.2c-17-4.9-34.7,5-39.6,22L225.2,471.2c-4.9,17,5,34.7,22,39.6s34.7-5,39.6-22L414.8,40.8c4.9-17-5-34.7-22-39.6h0Zm80.6,120.1c-12.5,12.5-12.5,32.8,0,45.3l89.3,89.4-89.4,89.4c-12.5,12.5-12.5,32.8,0,45.3s32.8,12.5,45.3,0l112-112c12.5-12.5,12.5-32.8,0-45.3l-112-112c-12.5-12.5-32.8-12.5-45.3,0l.1-.1Zm-306.7,0c-12.5-12.5-32.8-12.5-45.3,0L9.4,233.3c-12.5,12.5-12.5,32.8,0,45.3l112,112c12.5,12.5,32.8,12.5,45.3,0s12.5-32.8,0-45.3l-89.4-89.3,89.4-89.4c12.5-12.5,12.5-32.8,0-45.3h0Z"/>
</svg>