<?xml version="1.0" encoding="UTF-8"?>
<svg id="Layer_1" data-name="Layer 1" xmlns="http://www.w3.org/2000/svg" viewBox="0 0 16 16">
  <defs>
    <style>
      .cls-1 {
        fill: #abdfec;
      }
    </style>
  </defs>
  <path class="cls-1" d="M7.86,1.04L2.04,4.4c-.09,.05-.14,.14-.14,.24v6.72c0,.1,.05,.19,.14,.24l5.82,3.36c.09,.05,.19,.05,.28,0l5.82-3.36c.09-.05,.14-.14,.14-.24V4.64c0-.1-.05-.19-.14-.24L8.14,1.04c-.09-.05-.19-.05-.28,0h0Zm4.28,3.47l-.47,1.13c-.02,.05-.06,.1-.11,.13l-.3,.17s-.05-.01-.04-.04l.3-.71c.04-.09,0-.19-.09-.23h0c-.09-.04-.19,0-.23,.09l-.47,1.13c-.02,.05-.06,.1-.11,.13l-.32,.18s-.05-.01-.04-.04l.31-.76c.04-.09,0-.19-.09-.23h0c-.09-.04-.19,0-.23,.09l-.49,1.17c-.02,.05-.06,.1-.11,.13l-.13,.08c-.14,.08-.32,.08-.46,0l-.69-.4c-.14-.08-.23-.24-.23-.4v-.22c0-.05,.02-.11,.05-.15l.76-.98c.06-.08,.05-.18-.03-.24h0c-.08-.06-.18-.05-.24,.03l-.5,.64s-.04,0-.04-.01v-.32c0-.05,.02-.11,.05-.15l.76-.98c.06-.08,.05-.18-.03-.24h0c-.08-.06-.18-.05-.24,.03l-.5,.64s-.04,0-.04-.01v-.32c0-.05,.02-.11,.05-.15l.76-.97c.06-.08,.05-.18-.03-.24h0c-.08-.06-.18-.05-.24,.03l-.49,.63s-.04,0-.04-.01V1.59c0-.06,.07-.1,.13-.07l5.18,2.99c.05,.03,.05,.11,0,.14l-1.26,.73s-.05-.01-.04-.04l.29-.71c.04-.09,0-.19-.09-.23h0c-.09-.04-.19,0-.23,.09h0Zm-4.28,4.75l-.89-.52c-.07-.04-.12-.12-.12-.21v-1.03c0-.08,.05-.16,.12-.21l.89-.52c.07-.04,.16-.04,.24,0l.89,.52c.07,.04,.12,.12,.12,.21v1.03c0,.08-.05,.16-.12,.21l-.89,.52c-.07,.04-.16,.04-.24,0Zm-.09-6.12l-.48-.63c-.06-.08-.17-.09-.24-.03h0c-.08,.06-.09,.17-.03,.24l.75,.97s.05,.09,.05,.15v.31s-.03,.03-.04,.01l-.48-.63c-.06-.08-.17-.09-.24-.03h0c-.08,.06-.09,.17-.03,.24l.74,.97s.05,.09,.05,.15v.31s-.03,.03-.04,.01l-.47-.62c-.06-.08-.17-.09-.24-.03h0c-.08,.06-.09,.17-.03,.24l.74,.97s.05,.09,.05,.15v.24c0,.16-.09,.32-.23,.4l-.66,.38c-.14,.08-.32,.08-.46,0l-.15-.09s-.08-.07-.1-.12l-.46-1.13c-.04-.09-.14-.13-.23-.1h0c-.09,.04-.13,.14-.1,.23l.29,.72s-.02,.05-.04,.04l-.37-.21s-.08-.07-.1-.12l-.46-1.14c-.04-.09-.14-.13-.23-.1h0c-.09,.04-.13,.14-.1,.23l.3,.73s-.02,.05-.04,.04l-.27-.16s-.08-.07-.1-.12l-.45-1.11c-.04-.09-.14-.13-.23-.1h0c-.09,.04-.13,.14-.1,.23l.29,.7s-.02,.05-.04,.04l-1.25-.72c-.05-.03-.05-.11,0-.14L7.7,1.53c.05-.03,.12,0,.12,.07v1.52s-.03,.03-.05,.01h0ZM3.63,5.75l-.8,.1c-.09,.01-.16,.1-.15,.19h0c.01,.09,.1,.16,.19,.15l1.25-.16c.05,0,.11,0,.15,.03l.23,.13s.02,.05-.01,.05l-.77,.1c-.09,.01-.16,.1-.15,.19h0c.01,.09,.1,.16,.19,.15l1.22-.16c.05,0,.11,0,.15,.03l.37,.21s.02,.05-.01,.05l-.78,.1c-.09,.01-.16,.1-.15,.19h0c.01,.09,.1,.16,.19,.15l1.23-.16c.05,0,.11,0,.15,.03l.14,.08c.14,.08,.23,.24,.23,.4v.77c0,.17-.09,.32-.23,.4l-.16,.09s-.1,.04-.15,.03l-1.24-.17c-.09-.01-.18,.05-.2,.15h0c-.01,.09,.05,.18,.15,.2l.81,.11s.03,.04,0,.05l-.26,.15s-.1,.04-.15,.03l-1.23-.17c-.09-.01-.18,.05-.2,.15h0c-.01,.09,.05,.18,.15,.2l.79,.11s.03,.04,0,.05l-.32,.19s-.1,.04-.15,.03l-1.27-.18c-.09-.01-.18,.05-.2,.15h0c-.01,.09,.05,.18,.15,.2l.83,.12s.03,.04,0,.05l-1.3,.75c-.05,.03-.12,0-.12-.07V5.04c0-.06,.07-.1,.12-.07l1.27,.73s.02,.05-.01,.05h0Zm.18,4.93l-.28,.68c-.04,.09,0,.19,.09,.23h0c.09,.04,.19,0,.23-.09l.45-1.09s.06-.09,.1-.11l.37-.21s.05,0,.04,.03l-.3,.71c-.04,.09,0,.19,.09,.23h0c.09,.04,.19,0,.23-.09l.47-1.13s.06-.09,.1-.11l.23-.13s.05,0,.04,.03l-.29,.7c-.04,.09,0,.19,.09,.23h0c.09,.04,.19,0,.23-.09l.46-1.12s.06-.09,.1-.11l.18-.11c.14-.08,.32-.08,.46,0l.68,.39c.14,.08,.23,.24,.23,.4v.18c0,.05-.02,.1-.05,.15l-.75,.96c-.06,.08-.05,.18,.03,.24h0c.08,.06,.18,.05,.24-.03l.48-.62s.05,0,.05,.02v.32c0,.05-.02,.1-.05,.15l-.75,.96c-.06,.08-.05,.18,.03,.24h0c.08,.06,.18,.05,.24-.03l.48-.62s.05,0,.05,.02v.32c0,.05-.02,.1-.05,.15l-.75,.96c-.06,.08-.05,.18,.03,.24h0c.08,.06,.18,.05,.24-.03l.48-.62s.05,0,.05,.02v1.53c0,.06-.07,.1-.12,.07l-5.15-2.97c-.05-.03-.05-.11,0-.14l1.22-.71s.05,0,.04,.03h0Zm4.41,2.16l.48,.63c.06,.08,.17,.09,.24,.03h0c.08-.06,.09-.17,.03-.24l-.75-.99s-.05-.09-.05-.14v-.31s.03-.04,.05-.02l.48,.63c.06,.08,.17,.09,.24,.03h0c.08-.06,.09-.17,.03-.24l-.75-.99s-.05-.09-.05-.14v-.31s.03-.04,.05-.02l.48,.63c.06,.08,.17,.09,.24,.03h0c.08-.06,.09-.17,.03-.24l-.75-.99s-.05-.09-.05-.14v-.18c0-.17,.09-.32,.23-.4l.65-.38c.14-.08,.32-.08,.46,0l.17,.1s.09,.07,.11,.12l.45,1.11c.04,.09,.14,.13,.23,.1h0c.09-.04,.13-.14,.1-.23l-.3-.74s.01-.03,.03-.02l.43,.24s.03,.03,.04,.04l.48,1.18c.04,.09,.14,.13,.23,.1h0c.09-.04,.13-.14,.1-.23l-.31-.76s.01-.03,.03-.02l.34,.19s.03,.02,.04,.04l.48,1.17c.04,.09,.14,.13,.23,.1h0c.09-.04,.13-.14,.1-.23l-.31-.75s0-.03,.02-.02l1.31,.74c.06,.03,.06,.11,0,.14l-5.18,2.99c-.05,.03-.12,0-.12-.07v-1.55s.03-.04,.05-.02h0Zm4.13-2.57l.81-.11c.09-.01,.16-.1,.15-.19h0c-.01-.09-.1-.16-.19-.15l-1.29,.17s-.03,0-.05,0l-.32-.18s0-.02,0-.02l.82-.11c.09-.01,.16-.1,.15-.19h0c-.01-.09-.1-.16-.19-.15l-1.28,.17s-.04,0-.05,0l-.45-.25s-.01-.03,0-.03l.82-.11c.09-.01,.16-.1,.15-.19h0c-.01-.09-.1-.16-.19-.15l-1.23,.16c-.07,0-.14,0-.19-.04l-.09-.05c-.15-.08-.24-.24-.24-.4v-.77c0-.17,.09-.32,.23-.4l.21-.12s.11-.04,.17-.03l1.17,.16c.09,.01,.18-.05,.2-.15h0c.01-.09-.05-.18-.15-.2l-.74-.1s-.03-.04-.01-.05l.26-.15s.11-.04,.17-.03l1.22,.17c.09,.01,.18-.05,.2-.15h0c.01-.09-.05-.18-.15-.2l-.79-.11s-.03-.04-.01-.05l.3-.18s.11-.04,.17-.03l1.22,.17c.09,.01,.18-.05,.2-.15h0c.01-.09-.05-.18-.15-.2l-.79-.11s-.03-.04-.01-.05l1.26-.73c.05-.03,.12,0,.12,.07v5.94c0,.06-.07,.1-.12,.07l-1.3-.73s-.01-.03,0-.04h0Z"/>
</svg>