<?xml version="1.0" encoding="UTF-8"?>
<svg id="Layer_1" data-name="Layer 1" xmlns="http://www.w3.org/2000/svg" viewBox="0 0 576 512">
  <defs>
    <style>
      .cls-1 {
        fill: #57cc99;
      }
    </style>
  </defs>
  <path class="cls-1" d="M64,0C28.7,0,0,28.7,0,64V352c0,35.3,28.7,64,64,64H240l-10.7,32h-69.3c-17.7,0-32,14.3-32,32s14.3,32,32,32H416c17.7,0,32-14.3,32-32s-14.3-32-32-32h-69.3l-10.7-32h176c35.3,0,64-28.7,64-64V64c0-35.3-28.7-64-64-64H64Zm448,64v224H64V64h448Z"/>
  <path class="cls-1" d="M288,176c23.2,0,42-18.8,42-42s-18.8-42-42-42-42,18.8-42,42,18.8,42,42,42Zm-15,15.75c-32.32,0-58.5,26.18-58.5,58.5,0,5.38,4.36,9.75,9.75,9.75h127.51c5.38,0,9.75-4.36,9.75-9.75,0-32.32-26.18-58.5-58.5-58.5h-29.99Z"/>
</svg>