<?xml version="1.0" encoding="UTF-8"?>
<svg id="Layer_1" data-name="Layer 1" xmlns="http://www.w3.org/2000/svg" viewBox="0 0 640 512">
  <defs>
    <style>
      .cls-1 {
        fill: #57cc99;
      }
    </style>
  </defs>
  <path class="cls-1" d="M323.4,85.2l-96.8,78.4c-16.1,13-19.2,36.4-7,53.1,12.9,17.8,38,21.3,55.3,7.8l99.3-77.2c7-5.4,17-4.2,22.5,2.8s4.2,17-2.8,22.5l-20.9,16.2,139,128V128h-.7l-3.9-2.5-72.6-46.5c-15.3-9.8-33.2-15-51.4-15-21.8,0-43,7.5-60,21.2Zm22.8,124.4l-51.7,40.2c-31.5,24.6-77.2,18.2-100.8-14.2-22.2-30.5-16.6-73.1,12.7-96.8l83.2-67.3c-11.6-4.9-24.1-7.4-36.8-7.4-18.8-.1-37.1,5.5-52.8,15.9l-72,48v224h28.2l91.4,83.4c19.6,17.9,49.9,16.5,67.8-3.1,5.5-6.1,9.2-13.2,11.1-20.6l17,15.6c19.5,17.9,49.9,16.6,67.8-2.9,4.5-4.9,7.8-10.6,9.9-16.5,19.4,13,45.8,10.3,62.1-7.5,17.9-19.5,16.6-49.9-2.9-67.8l-134.2-123h0ZM16,128c-8.8,0-16,7.2-16,16v208c0,17.7,14.3,32,32,32h32c17.7,0,32-14.3,32-32V128H16Zm32,192c8.84,0,16,7.16,16,16s-7.16,16-16,16-16-7.16-16-16,7.16-16,16-16Zm496-192v224c0,17.7,14.3,32,32,32h32c17.7,0,32-14.3,32-32V144c0-8.8-7.2-16-16-16h-80Zm32,208c0-8.84,7.16-16,16-16s16,7.16,16,16-7.16,16-16,16-16-7.16-16-16Z"/>
</svg>